<mxfile host="app.diagrams.net" modified="2020-10-06T01:23:47.954Z" agent="5.0 (Windows NT 10.0; Win64; x64) AppleWebKit/537.36 (KHTML, like Gecko) Chrome/85.0.4183.121 Safari/537.36" etag="cqvS6z68UPPjVtFtVBf5" version="13.7.7" type="github">
  <diagram name="Page-1" id="e56a1550-8fbb-45ad-956c-1786394a9013">
    <mxGraphModel dx="1445" dy="794" grid="1" gridSize="10" guides="1" tooltips="1" connect="1" arrows="1" fold="1" page="1" pageScale="1" pageWidth="1100" pageHeight="850" background="#ffffff" math="0" shadow="0">
      <root>
        <mxCell id="0" />
        <mxCell id="1" parent="0" />
        <mxCell id="r8OwfYiXTvmHwOKNOA3X-19" value="" style="rounded=0;whiteSpace=wrap;html=1;" vertex="1" parent="1">
          <mxGeometry x="180" y="280" width="930" height="160" as="geometry" />
        </mxCell>
        <mxCell id="r8OwfYiXTvmHwOKNOA3X-17" value="" style="rounded=0;whiteSpace=wrap;html=1;" vertex="1" parent="1">
          <mxGeometry x="360" y="300" width="720" height="120" as="geometry" />
        </mxCell>
        <mxCell id="r8OwfYiXTvmHwOKNOA3X-1" value="Application Server(s)" style="rounded=0;whiteSpace=wrap;html=1;" vertex="1" parent="1">
          <mxGeometry x="750" y="330" width="120" height="60" as="geometry" />
        </mxCell>
        <mxCell id="r8OwfYiXTvmHwOKNOA3X-2" value="Gateway Server(s)" style="rounded=0;whiteSpace=wrap;html=1;" vertex="1" parent="1">
          <mxGeometry x="570" y="330" width="120" height="60" as="geometry" />
        </mxCell>
        <mxCell id="r8OwfYiXTvmHwOKNOA3X-3" value="Database Server(s)" style="rounded=0;whiteSpace=wrap;html=1;" vertex="1" parent="1">
          <mxGeometry x="930" y="330" width="120" height="60" as="geometry" />
        </mxCell>
        <mxCell id="r8OwfYiXTvmHwOKNOA3X-4" value="" style="shape=flexArrow;endArrow=classic;startArrow=classic;html=1;exitX=1;exitY=0.5;exitDx=0;exitDy=0;entryX=0;entryY=0.5;entryDx=0;entryDy=0;" edge="1" parent="1" source="r8OwfYiXTvmHwOKNOA3X-2" target="r8OwfYiXTvmHwOKNOA3X-1">
          <mxGeometry width="50" height="50" relative="1" as="geometry">
            <mxPoint x="840" y="440" as="sourcePoint" />
            <mxPoint x="890" y="390" as="targetPoint" />
          </mxGeometry>
        </mxCell>
        <mxCell id="r8OwfYiXTvmHwOKNOA3X-5" value="" style="shape=flexArrow;endArrow=classic;startArrow=classic;html=1;entryX=0;entryY=0.5;entryDx=0;entryDy=0;exitX=1;exitY=0.5;exitDx=0;exitDy=0;" edge="1" parent="1" source="r8OwfYiXTvmHwOKNOA3X-1" target="r8OwfYiXTvmHwOKNOA3X-3">
          <mxGeometry width="50" height="50" relative="1" as="geometry">
            <mxPoint x="840" y="440" as="sourcePoint" />
            <mxPoint x="890" y="390" as="targetPoint" />
          </mxGeometry>
        </mxCell>
        <mxCell id="r8OwfYiXTvmHwOKNOA3X-7" value="" style="shape=flexArrow;endArrow=classic;startArrow=classic;html=1;exitX=0;exitY=0.5;exitDx=0;exitDy=0;entryX=1;entryY=0.5;entryDx=0;entryDy=0;" edge="1" parent="1" source="r8OwfYiXTvmHwOKNOA3X-2" target="r8OwfYiXTvmHwOKNOA3X-8">
          <mxGeometry width="50" height="50" relative="1" as="geometry">
            <mxPoint x="730" y="370" as="sourcePoint" />
            <mxPoint x="570" y="470" as="targetPoint" />
          </mxGeometry>
        </mxCell>
        <mxCell id="r8OwfYiXTvmHwOKNOA3X-8" value="Load Balancer" style="rounded=0;whiteSpace=wrap;html=1;" vertex="1" parent="1">
          <mxGeometry x="390" y="330" width="120" height="60" as="geometry" />
        </mxCell>
        <mxCell id="r8OwfYiXTvmHwOKNOA3X-9" value="" style="shape=flexArrow;endArrow=classic;startArrow=classic;html=1;exitX=0.5;exitY=1;exitDx=0;exitDy=0;entryX=0.5;entryY=0;entryDx=0;entryDy=0;" edge="1" parent="1" source="r8OwfYiXTvmHwOKNOA3X-2" target="r8OwfYiXTvmHwOKNOA3X-10">
          <mxGeometry width="50" height="50" relative="1" as="geometry">
            <mxPoint x="610" y="370" as="sourcePoint" />
            <mxPoint x="450" y="460" as="targetPoint" />
          </mxGeometry>
        </mxCell>
        <mxCell id="r8OwfYiXTvmHwOKNOA3X-10" value="Selected Payment Server" style="rounded=0;whiteSpace=wrap;html=1;" vertex="1" parent="1">
          <mxGeometry x="570" y="470" width="120" height="60" as="geometry" />
        </mxCell>
        <mxCell id="r8OwfYiXTvmHwOKNOA3X-14" value="" style="shape=flexArrow;endArrow=classic;startArrow=classic;html=1;exitX=0;exitY=0.5;exitDx=0;exitDy=0;entryX=1;entryY=0.5;entryDx=0;entryDy=0;" edge="1" parent="1" source="r8OwfYiXTvmHwOKNOA3X-8" target="r8OwfYiXTvmHwOKNOA3X-15">
          <mxGeometry width="50" height="50" relative="1" as="geometry">
            <mxPoint x="610" y="370" as="sourcePoint" />
            <mxPoint x="520" y="370" as="targetPoint" />
          </mxGeometry>
        </mxCell>
        <mxCell id="r8OwfYiXTvmHwOKNOA3X-15" value="Reverse Proxy" style="rounded=0;whiteSpace=wrap;html=1;" vertex="1" parent="1">
          <mxGeometry x="210" y="330" width="120" height="60" as="geometry" />
        </mxCell>
        <mxCell id="r8OwfYiXTvmHwOKNOA3X-20" value="Internal Firewall" style="text;html=1;strokeColor=none;fillColor=none;align=center;verticalAlign=middle;whiteSpace=wrap;rounded=0;" vertex="1" parent="1">
          <mxGeometry x="360" y="300" width="90" height="20" as="geometry" />
        </mxCell>
        <mxCell id="r8OwfYiXTvmHwOKNOA3X-23" value="&lt;span style=&quot;color: rgb(32 , 33 , 34) ; font-family: sans-serif ; font-size: 14px ; background-color: rgb(255 , 255 , 255)&quot;&gt;Perimeter Firewall&lt;br&gt;&lt;/span&gt;" style="text;html=1;strokeColor=none;fillColor=none;align=center;verticalAlign=middle;whiteSpace=wrap;rounded=0;" vertex="1" parent="1">
          <mxGeometry x="190" y="280" width="130" height="20" as="geometry" />
        </mxCell>
        <mxCell id="r8OwfYiXTvmHwOKNOA3X-25" value="DMZ" style="text;html=1;strokeColor=none;fillColor=none;align=center;verticalAlign=middle;whiteSpace=wrap;rounded=0;" vertex="1" parent="1">
          <mxGeometry x="250" y="400" width="40" height="20" as="geometry" />
        </mxCell>
        <mxCell id="r8OwfYiXTvmHwOKNOA3X-27" value="" style="shape=flexArrow;endArrow=classic;startArrow=classic;html=1;entryX=1;entryY=0.5;entryDx=0;entryDy=0;exitX=0;exitY=0.5;exitDx=0;exitDy=0;" edge="1" parent="1" source="r8OwfYiXTvmHwOKNOA3X-15" target="r8OwfYiXTvmHwOKNOA3X-28">
          <mxGeometry width="50" height="50" relative="1" as="geometry">
            <mxPoint x="580" y="370" as="sourcePoint" />
            <mxPoint x="140" y="380" as="targetPoint" />
          </mxGeometry>
        </mxCell>
        <mxCell id="r8OwfYiXTvmHwOKNOA3X-28" value="Client Web Browser" style="rounded=0;whiteSpace=wrap;html=1;" vertex="1" parent="1">
          <mxGeometry x="30" y="330" width="120" height="60" as="geometry" />
        </mxCell>
      </root>
    </mxGraphModel>
  </diagram>
</mxfile>
